<?xml version="1.0" encoding="UTF-8" standalone="no"?>
<!-- Created with Inkscape (http://www.inkscape.org/) -->

<svg
   xmlns:dc="http://purl.org/dc/elements/1.1/"
   xmlns:cc="http://creativecommons.org/ns#"
   xmlns:rdf="http://www.w3.org/1999/02/22-rdf-syntax-ns#"
   xmlns:svg="http://www.w3.org/2000/svg"
   xmlns="http://www.w3.org/2000/svg"
   xmlns:xlink="http://www.w3.org/1999/xlink"
   xmlns:sodipodi="http://sodipodi.sourceforge.net/DTD/sodipodi-0.dtd"
   xmlns:inkscape="http://www.inkscape.org/namespaces/inkscape"
   width="72.303886mm"
   height="72.303886mm"
   viewBox="0 0 72.303886 72.303886"
   version="1.1"
   id="svg6779"
   inkscape:version="0.92.1 r15371"
   sodipodi:docname="paisacoin_logo.svg">
  <defs
     id="defs6773">
    <filter
       inkscape:collect="always"
       style="color-interpolation-filters:sRGB"
       id="filter5092"
       x="-0.024"
       width="1.048"
       y="-0.024"
       height="1.048">
      <feGaussianBlur
         inkscape:collect="always"
         stdDeviation="1.0316604"
         id="feGaussianBlur5094" />
    </filter>
    <linearGradient
       inkscape:collect="always"
       xlink:href="#linearGradient5399-4"
       id="linearGradient5051"
       x1="97.478607"
       y1="134.59949"
       x2="124.69336"
       y2="150.31194"
       gradientUnits="userSpaceOnUse"
       gradientTransform="translate(-222.101,-285.30368)" />
    <linearGradient
       inkscape:collect="always"
       id="linearGradient5399-4">
      <stop
         style="stop-color:#ffffff;stop-opacity:1"
         offset="0"
         id="stop5395" />
      <stop
         id="stop5436"
         offset="0.49999985"
         style="stop-color:#ffffff;stop-opacity:0.60220993" />
      <stop
         style="stop-color:#ffffff;stop-opacity:0.97790056"
         offset="1"
         id="stop5397" />
    </linearGradient>
    <filter
       inkscape:collect="always"
       style="color-interpolation-filters:sRGB"
       id="filter5006"
       x="-0.024"
       width="1.048"
       y="-0.024"
       height="1.048">
      <feGaussianBlur
         inkscape:collect="always"
         stdDeviation="0.94255684"
         id="feGaussianBlur5008" />
    </filter>
    <linearGradient
       inkscape:collect="always"
       xlink:href="#linearGradient6392"
       id="linearGradient5039"
       x1="-158.27521"
       y1="-142.5182"
       x2="-63.558517"
       y2="-142.5182"
       gradientUnits="userSpaceOnUse"
       gradientTransform="translate(-0.26726647,-0.2672741)" />
    <linearGradient
       id="linearGradient6392"
       inkscape:collect="always">
      <stop
         id="stop6388"
         offset="0"
         style="stop-color:#af1cff;stop-opacity:1" />
      <stop
         id="stop6390"
         offset="1"
         style="stop-color:#2d00b3;stop-opacity:0.62352943" />
    </linearGradient>
    <linearGradient
       inkscape:collect="always"
       xlink:href="#linearGradient5156"
       id="linearGradient5158"
       x1="-167.40385"
       y1="-167.91698"
       x2="-166.95505"
       y2="-168.17609"
       gradientUnits="userSpaceOnUse"
       gradientTransform="translate(278.22757,25.123336)" />
    <linearGradient
       inkscape:collect="always"
       id="linearGradient5156">
      <stop
         style="stop-color:#ffffff;stop-opacity:1"
         offset="0"
         id="stop5152" />
      <stop
         style="stop-color:#ffffff;stop-opacity:0.31491712"
         offset="1"
         id="stop5154" />
    </linearGradient>
    <filter
       inkscape:collect="always"
       style="color-interpolation-filters:sRGB"
       id="filter5424"
       x="-0.026802514"
       width="1.053605"
       y="-0.034063734"
       height="1.0681275">
      <feGaussianBlur
         inkscape:collect="always"
         stdDeviation="2.8686112"
         id="feGaussianBlur5426" />
    </filter>
    <linearGradient
       inkscape:collect="always"
       id="linearGradient5432">
      <stop
         style="stop-color:#4d4d50;stop-opacity:1"
         offset="0"
         id="stop5428" />
      <stop
         style="stop-color:#767575;stop-opacity:0.69411767"
         offset="1"
         id="stop5430" />
    </linearGradient>
    <linearGradient
       inkscape:collect="always"
       xlink:href="#linearGradient5432"
       id="linearGradient7236"
       gradientUnits="userSpaceOnUse"
       x1="298.99289"
       y1="558.60059"
       x2="555.85938"
       y2="558.60059" />
    <linearGradient
       inkscape:collect="always"
       xlink:href="#linearGradient5399-4"
       id="linearGradient7238"
       gradientUnits="userSpaceOnUse"
       gradientTransform="matrix(1.0620305,0,-0.08106374,1.0620305,-95.509376,11.521869)"
       x1="216.5688"
       y1="110.38322"
       x2="199.68877"
       y2="125.81393" />
  </defs>
  <sodipodi:namedview
     id="base"
     pagecolor="#ffffff"
     bordercolor="#666666"
     borderopacity="1.0"
     inkscape:pageopacity="0.0"
     inkscape:pageshadow="2"
     inkscape:zoom="0.7"
     inkscape:cx="328.84427"
     inkscape:cy="-173.71015"
     inkscape:document-units="mm"
     inkscape:current-layer="layer1"
     showgrid="false"
     fit-margin-top="0"
     fit-margin-left="0"
     fit-margin-right="0"
     fit-margin-bottom="0"
     inkscape:window-width="1366"
     inkscape:window-height="745"
     inkscape:window-x="-8"
     inkscape:window-y="-8"
     inkscape:window-maximized="1" />
  <metadata
     id="metadata6776">
    <rdf:RDF>
      <cc:Work
         rdf:about="">
        <dc:format>image/svg+xml</dc:format>
        <dc:type
           rdf:resource="http://purl.org/dc/dcmitype/StillImage" />
        <dc:title></dc:title>
      </cc:Work>
    </rdf:RDF>
  </metadata>
  <g
     inkscape:label="Layer 1"
     inkscape:groupmode="layer"
     id="layer1"
     transform="translate(-40.120751,-32.006799)">
    <g
       id="g6381"
       transform="translate(38.957241,-112.89642)">
      <g
         id="g5452"
         transform="matrix(0.66874975,0,0,0.66874975,-37.038904,85.567411)">
        <circle
           id="path3834-9"
           cx="-111.18413"
           cy="-142.78548"
           r="51.583019"
           style="opacity:0.61499999;fill:#000000;fill-opacity:1;stroke-width:0.26458332;filter:url(#filter5092)"
           transform="scale(-1)" />
        <circle
           id="path3834"
           cx="-111.18413"
           cy="-142.78548"
           r="51.583019"
           style="opacity:1;fill:url(#linearGradient5051);fill-opacity:1;stroke-width:0.26458332"
           transform="scale(-1)" />
        <path
           sodipodi:type="star"
           style="fill:#ffffff;fill-opacity:1;stroke-width:0.1609146;filter:url(#filter5006)"
           id="path4653"
           sodipodi:sides="36"
           sodipodi:cx="-111.81807"
           sodipodi:cy="-141.11343"
           sodipodi:r1="44.16296"
           sodipodi:r2="47.127842"
           sodipodi:arg1="0.26179939"
           sodipodi:arg2="0.34906585"
           inkscape:flatsided="false"
           inkscape:rounded="0.2"
           inkscape:randomized="0"
           d="m -69.159926,-129.68322 c -0.256899,0.95876 1.967025,3.75573 1.627542,4.68846 -0.339483,0.93272 -3.840967,1.64581 -4.260451,2.5454 -0.419483,0.89959 1.284965,4.04025 0.788674,4.89985 -0.496291,0.8596 -4.068407,0.95383 -4.63773,1.76691 -0.569322,0.81308 0.563863,4.202 -0.07416,4.96236 -0.63802,0.76036 -4.172231,0.23287 -4.874093,0.93473 -0.701862,0.70187 -0.174373,4.23608 -0.934736,4.8741 -0.760362,0.63802 -4.149283,-0.49517 -4.962359,0.0742 -0.813076,0.56932 -0.907311,4.14143 -1.766912,4.63772 -0.859602,0.496296 -4.000263,-1.20815 -4.899848,-0.78867 -0.899586,0.41948 -1.61268,3.920968 -2.545402,4.260451 -0.932723,0.339484 -3.729695,-1.88444 -4.688452,-1.627541 -0.95877,0.256899 -2.26905,3.58136 -3.24656,3.75372 -0.9775,0.17236 -3.3458,-2.503466 -4.3346,-2.416957 -0.98881,0.08651 -2.85648,3.132935 -3.84906,3.132935 -0.99258,0 -2.86025,-3.046426 -3.84906,-3.132935 -0.9888,-0.08651 -3.3571,2.589317 -4.3346,2.416957 -0.97751,-0.17236 -2.28779,-3.496821 -3.24655,-3.75372 -0.95877,-0.256899 -3.75574,1.967025 -4.68846,1.627541 -0.93272,-0.339483 -1.64582,-3.840971 -2.5454,-4.260451 -0.89959,-0.41948 -4.04025,1.284966 -4.89985,0.78867 -0.8596,-0.49629 -0.95384,-4.0684 -1.76691,-4.63772 -0.81308,-0.56933 -4.202,0.56386 -4.96236,-0.0742 -0.76036,-0.63802 -0.23288,-4.17223 -0.93474,-4.8741 -0.70186,-0.70186 -4.23607,-0.17437 -4.87409,-0.93473 -0.63802,-0.76036 0.49516,-4.14928 -0.0742,-4.96236 -0.56932,-0.81308 -4.14144,-0.90731 -4.63773,-1.76691 -0.49629,-0.8596 1.20816,-4.00027 0.78868,-4.89985 -0.41949,-0.89959 -3.92097,-1.61268 -4.26045,-2.5454 -0.33949,-0.93273 1.88444,-3.7297 1.62754,-4.68846 -0.2569,-0.95876 -3.58136,-2.26905 -3.75372,-3.24655 -0.17236,-0.9775 2.50346,-3.3458 2.41695,-4.33461 -0.0865,-0.9888 -3.13293,-2.85647 -3.13293,-3.84905 0,-0.99259 3.04642,-2.86025 3.13293,-3.84906 0.0865,-0.98881 -2.58931,-3.3571 -2.41695,-4.33461 0.17236,-0.9775 3.49682,-2.28779 3.75372,-3.24655 0.2569,-0.95876 -1.96703,-3.75573 -1.62754,-4.68846 0.33948,-0.93272 3.84096,-1.64581 4.26045,-2.5454 0.41948,-0.89958 -1.28497,-4.04024 -0.78868,-4.89984 0.49629,-0.85961 4.06841,-0.95384 4.63773,-1.76692 0.56932,-0.81307 -0.56386,-4.20199 0.0742,-4.96236 0.63802,-0.76036 4.17223,-0.23287 4.87409,-0.93473 0.70186,-0.70186 0.17438,-4.23608 0.93474,-4.8741 0.76036,-0.63802 4.14928,0.49517 4.96236,-0.0742 0.81307,-0.56932 0.90731,-4.14144 1.76691,-4.63773 0.8596,-0.49629 4.00026,1.20816 4.89985,0.78867 0.89958,-0.41948 1.61268,-3.92097 2.5454,-4.26045 0.93272,-0.33948 3.72969,1.88444 4.68846,1.62754 0.95876,-0.2569 2.26904,-3.58136 3.24655,-3.75372 0.9775,-0.17236 3.3458,2.50347 4.33461,2.41696 0.9888,-0.0865 2.85647,-3.13294 3.84905,-3.13294 0.99258,0 2.86025,3.04643 3.84906,3.13294 0.9888,0.0865 3.3571,-2.58932 4.3346,-2.41696 0.97751,0.17236 2.28779,3.49682 3.24656,3.75372 0.958757,0.2569 3.755729,-1.96702 4.688452,-1.62754 0.932722,0.33948 1.645817,3.84097 2.545402,4.26045 0.899585,0.41949 4.040246,-1.28496 4.899848,-0.78867 0.859601,0.49629 0.953836,4.06841 1.766912,4.63773 0.813076,0.56932 4.201997,-0.56387 4.962359,0.0742 0.760363,0.63802 0.232874,4.17224 0.934736,4.8741 0.701862,0.70186 4.236073,0.17437 4.874093,0.93473 0.63802,0.76037 -0.495164,4.14929 0.07416,4.96236 0.569322,0.81308 4.141438,0.90731 4.637729,1.76692 0.496291,0.8596 -1.208157,4.00026 -0.788674,4.89984 0.419484,0.89959 3.920968,1.61268 4.260451,2.5454 0.339483,0.93273 -1.884441,3.7297 -1.627542,4.68846 0.2569,0.95876 3.58136,2.26905 3.753721,3.24655 0.17236,0.97751 -2.503467,3.3458 -2.416958,4.33461 0.08651,0.98881 3.132935,2.85647 3.132935,3.84906 0,0.99258 -3.046426,2.86025 -3.132935,3.84905 -0.08651,0.98881 2.589318,3.35711 2.416958,4.33461 -0.172361,0.9775 -3.496821,2.28779 -3.753721,3.24655 z"
           inkscape:transform-center-x="0.81892331"
           inkscape:transform-center-y="-4.049805"
           transform="rotate(180,-0.31697078,0.83602147)" />
        <path
           sodipodi:type="star"
           style="fill:url(#linearGradient5039);fill-opacity:1;stroke:#3763ff;stroke-width:0.461;stroke-miterlimit:4;stroke-dasharray:none;stroke-opacity:0.44751383"
           id="path4653-7"
           sodipodi:sides="36"
           sodipodi:cx="-111.18413"
           sodipodi:cy="-142.78548"
           sodipodi:r1="44.162964"
           sodipodi:r2="47.127846"
           sodipodi:arg1="0.26179939"
           sodipodi:arg2="0.34906585"
           inkscape:flatsided="false"
           inkscape:rounded="0.2"
           inkscape:randomized="0"
           d="m -68.52598,-131.35526 c -0.2569,0.95876 1.967024,3.75573 1.627541,4.68846 -0.339483,0.93272 -3.840967,1.64581 -4.260451,2.5454 -0.419483,0.89958 1.284965,4.04024 0.788674,4.89985 -0.496292,0.8596 -4.068408,0.95383 -4.63773,1.76691 -0.569322,0.81308 0.563862,4.202 -0.07416,4.96236 -0.63802,0.76036 -4.172232,0.23287 -4.874094,0.93473 -0.701862,0.70187 -0.174373,4.23608 -0.934735,4.8741 -0.760363,0.63802 -4.149284,-0.49517 -4.96236,0.0742 -0.813077,0.56932 -0.907311,4.14143 -1.766913,4.63772 -0.859602,0.4963 -4.000262,-1.20815 -4.899848,-0.78867 -0.899585,0.41949 -1.61268,3.920969 -2.545402,4.260452 -0.932723,0.339484 -3.729695,-1.884442 -4.688457,-1.627542 -0.958758,0.2569 -2.269048,3.581361 -3.246548,3.753721 -0.97751,0.17236 -3.34581,-2.503467 -4.33461,-2.416957 -0.98881,0.08651 -2.85648,3.132935 -3.84906,3.132935 -0.99258,0 -2.86025,-3.046426 -3.84905,-3.132935 -0.98881,-0.08651 -3.35711,2.589317 -4.33461,2.416957 -0.97751,-0.17236 -2.28779,-3.496821 -3.24655,-3.753721 -0.95877,-0.2569 -3.75574,1.967026 -4.68846,1.627542 -0.93272,-0.339483 -1.64582,-3.840972 -2.5454,-4.260452 -0.89959,-0.41948 -4.04025,1.28497 -4.89985,0.78867 -0.8596,-0.49629 -0.95384,-4.0684 -1.76691,-4.63772 -0.81308,-0.56933 -4.202,0.56386 -4.96236,-0.0742 -0.76037,-0.63802 -0.23288,-4.17223 -0.93474,-4.8741 -0.70186,-0.70186 -4.23607,-0.17437 -4.87409,-0.93473 -0.63802,-0.76036 0.49516,-4.14929 -0.0742,-4.96236 -0.56932,-0.81308 -4.14144,-0.90731 -4.63773,-1.76691 -0.49629,-0.85961 1.20816,-4.00027 0.78867,-4.89985 -0.41948,-0.89959 -3.92096,-1.61268 -4.26045,-2.5454 -0.33948,-0.93273 1.88444,-3.7297 1.62754,-4.68846 -0.25689,-0.95876 -3.58136,-2.26905 -3.75372,-3.24655 -0.17236,-0.97751 2.50347,-3.34581 2.41696,-4.33461 -0.0865,-0.98881 -3.13293,-2.85647 -3.13293,-3.84906 0,-0.99258 3.04642,-2.86025 3.13293,-3.84905 0.0865,-0.98881 -2.58932,-3.35711 -2.41696,-4.33461 0.17236,-0.9775 3.49683,-2.28779 3.75372,-3.24655 0.2569,-0.95876 -1.96702,-3.75574 -1.62754,-4.68846 0.33949,-0.93272 3.84097,-1.64582 4.26045,-2.5454 0.41949,-0.89959 -1.28496,-4.04025 -0.78867,-4.89985 0.49629,-0.8596 4.06841,-0.95384 4.63773,-1.76691 0.56932,-0.81308 -0.56386,-4.202 0.0742,-4.96236 0.63802,-0.76036 4.17223,-0.23288 4.87409,-0.93474 0.70186,-0.70186 0.17437,-4.23607 0.93474,-4.87409 0.76036,-0.63802 4.14928,0.49516 4.96236,-0.0742 0.81307,-0.56932 0.90731,-4.14144 1.76691,-4.63773 0.8596,-0.49629 4.00026,1.20816 4.89985,0.78868 0.89958,-0.41949 1.61268,-3.92097 2.5454,-4.26046 0.93272,-0.33948 3.72969,1.88445 4.68846,1.62755 0.95876,-0.2569 2.26904,-3.58136 3.24655,-3.75372 0.9775,-0.17236 3.3458,2.50346 4.33461,2.41695 0.9888,-0.0865 2.85647,-3.13293 3.84905,-3.13293 0.99258,0 2.86025,3.04642 3.84906,3.13293 0.9888,0.0865 3.3571,-2.58931 4.33461,-2.41695 0.9775,0.17236 2.28779,3.49682 3.246548,3.75372 0.958762,0.2569 3.755734,-1.96703 4.688457,-1.62755 0.932722,0.33949 1.645817,3.84097 2.545402,4.26046 0.899586,0.41948 4.040246,-1.28497 4.899848,-0.78868 0.859602,0.49629 0.953836,4.06841 1.766913,4.63773 0.813076,0.56932 4.201997,-0.56386 4.96236,0.0742 0.760362,0.63802 0.232873,4.17223 0.934735,4.87409 0.701863,0.70186 4.236074,0.17438 4.874094,0.93474 0.638019,0.76036 -0.495165,4.14928 0.07416,4.96236 0.569322,0.81307 4.141438,0.90731 4.63773,1.76691 0.496291,0.8596 -1.208157,4.00026 -0.788674,4.89985 0.419484,0.89958 3.920968,1.61268 4.260451,2.5454 0.339483,0.93272 -1.884441,3.7297 -1.627541,4.68846 0.256899,0.95876 3.58136,2.26905 3.75372,3.24655 0.17236,0.9775 -2.503467,3.3458 -2.416957,4.33461 0.08651,0.9888 3.132935,2.85647 3.132935,3.84905 0,0.99259 -3.046426,2.86025 -3.132935,3.84906 -0.08651,0.98881 2.589317,3.3571 2.416957,4.33461 -0.17236,0.9775 -3.496821,2.28779 -3.75372,3.24655 z"
           inkscape:transform-center-x="0.81892331"
           inkscape:transform-center-y="-4.049805"
           transform="scale(-1)" />
        <circle
           id="path3834-8"
           cx="111.18413"
           cy="142.78548"
           r="51.583019"
           style="fill:none;fill-opacity:1;stroke:#a2a2a3;stroke-width:0.36500001;stroke-linecap:round;stroke-miterlimit:4;stroke-dasharray:none;stroke-dashoffset:0;stroke-opacity:1" />
        <path
           sodipodi:type="star"
           style="opacity:0.17600002;fill:url(#linearGradient5158);fill-opacity:1;stroke:none;stroke-width:0.46100003;stroke-miterlimit:4;stroke-dasharray:none;stroke-opacity:0.44751383"
           id="path4653-7-6"
           sodipodi:sides="36"
           sodipodi:cx="110.91685"
           sodipodi:cy="-143.05275"
           sodipodi:r1="44.162968"
           sodipodi:r2="47.127846"
           sodipodi:arg1="0.26179939"
           sodipodi:arg2="0.34906585"
           inkscape:flatsided="false"
           inkscape:rounded="0.2"
           inkscape:randomized="0"
           d="m 153.575,-131.62253 c -0.2569,0.95876 1.96702,3.75573 1.62754,4.68845 -0.33949,0.93273 -3.84097,1.64582 -4.26045,2.54541 -0.41948,0.89958 1.28496,4.04024 0.78867,4.89984 -0.49629,0.8596 -4.06841,0.95384 -4.63773,1.76692 -0.56932,0.81307 0.56386,4.20199 -0.0742,4.96236 -0.63802,0.76036 -4.17223,0.23287 -4.87409,0.93473 -0.70186,0.70187 -0.17438,4.23608 -0.93474,4.87409 -0.76036,0.63802 -4.14928,-0.49516 -4.96236,0.0742 -0.81307,0.56932 -0.90731,4.14143 -1.76691,4.63772 -0.8596,0.49629 -4.00026,-1.20815 -4.89985,-0.78867 -0.89958,0.41949 -1.61268,3.920966 -2.5454,4.260449 -0.93272,0.339483 -3.72969,-1.884439 -4.68846,-1.627539 -0.95876,0.2569 -2.26905,3.581358 -3.24655,3.753718 -0.9775,0.17236 -3.3458,-2.503463 -4.33461,-2.416953 -0.9888,0.08651 -2.85647,3.132931 -3.84905,3.132931 -0.99259,0 -2.86025,-3.046422 -3.84906,-3.132931 -0.9888,-0.08651 -3.3571,2.589313 -4.33461,2.416953 -0.9775,-0.17236 -2.28779,-3.496818 -3.24655,-3.753718 -0.958761,-0.2569 -3.755733,1.967022 -4.688455,1.627539 -0.932723,-0.339483 -1.645819,-3.840959 -2.545404,-4.260449 -0.899586,-0.41948 -4.040245,1.28496 -4.899847,0.78867 -0.859601,-0.49629 -0.953839,-4.0684 -1.766914,-4.63772 -0.813076,-0.56933 -4.201996,0.56385 -4.962358,-0.0742 -0.760362,-0.63801 -0.232877,-4.17222 -0.934739,-4.87409 -0.701861,-0.70186 -4.23607,-0.17437 -4.87409,-0.93473 -0.63802,-0.76037 0.495161,-4.14929 -0.07416,-4.96236 -0.569322,-0.81308 -4.141435,-0.90732 -4.637726,-1.76692 -0.496292,-0.8596 1.208153,-4.00026 0.78867,-4.89984 -0.419484,-0.89959 -3.920965,-1.61268 -4.260448,-2.54541 -0.339483,-0.93272 1.884437,-3.72969 1.627538,-4.68845 -0.256899,-0.95876 -3.581357,-2.26905 -3.753717,-3.24656 -0.17236,-0.9775 2.503463,-3.3458 2.416954,-4.3346 -0.08651,-0.98881 -3.132932,-2.85648 -3.132932,-3.84906 0,-0.99258 3.046423,-2.86025 3.132932,-3.84906 0.08651,-0.9888 -2.589314,-3.3571 -2.416954,-4.3346 0.17236,-0.97751 3.496818,-2.2878 3.753717,-3.24656 0.256899,-0.95876 -1.967021,-3.75573 -1.627538,-4.68845 0.339483,-0.93272 3.840964,-1.64582 4.260448,-2.54541 0.419483,-0.89958 -1.284962,-4.04024 -0.78867,-4.89984 0.496291,-0.8596 4.068404,-0.95384 4.637726,-1.76692 0.569322,-0.81307 -0.563859,-4.20199 0.07416,-4.96235 0.63802,-0.76037 4.172229,-0.23288 4.87409,-0.93474 0.701862,-0.70187 0.174377,-4.23607 0.934739,-4.87409 0.760362,-0.63802 4.149282,0.49516 4.962358,-0.0742 0.813076,-0.56933 0.907313,-4.14144 1.766914,-4.63773 0.859602,-0.49629 4.000262,1.20815 4.899847,0.78867 0.899585,-0.41948 1.612681,-3.92097 2.545404,-4.26045 0.932722,-0.33948 3.729694,1.88444 4.688455,1.62754 0.95876,-0.2569 2.26905,-3.58136 3.24655,-3.75372 0.97751,-0.17236 3.34581,2.50347 4.33461,2.41696 0.98881,-0.0865 2.85647,-3.13294 3.84906,-3.13294 0.99258,0 2.86025,3.04643 3.84905,3.13294 0.98881,0.0865 3.35711,-2.58932 4.33461,-2.41696 0.9775,0.17236 2.28779,3.49682 3.24655,3.75372 0.95877,0.2569 3.75574,-1.96702 4.68846,-1.62754 0.93272,0.33948 1.64582,3.84097 2.5454,4.26045 0.89959,0.41948 4.04025,-1.28496 4.89985,-0.78867 0.8596,0.49629 0.95384,4.0684 1.76691,4.63773 0.81308,0.56932 4.202,-0.56386 4.96236,0.0742 0.76036,0.63802 0.23288,4.17222 0.93474,4.87409 0.70186,0.70186 4.23607,0.17437 4.87409,0.93474 0.63802,0.76036 -0.49516,4.14928 0.0742,4.96235 0.56932,0.81308 4.14144,0.90732 4.63773,1.76692 0.49629,0.8596 -1.20815,4.00026 -0.78867,4.89984 0.41948,0.89959 3.92096,1.61269 4.26045,2.54541 0.33948,0.93272 -1.88444,3.72969 -1.62754,4.68845 0.2569,0.95876 3.58136,2.26905 3.75372,3.24656 0.17236,0.9775 -2.50347,3.3458 -2.41696,4.3346 0.0865,0.98881 3.13293,2.85648 3.13293,3.84906 0,0.99258 -3.04642,2.86025 -3.13293,3.84906 -0.0865,0.9888 2.58932,3.3571 2.41696,4.3346 -0.17237,0.97751 -3.49682,2.2878 -3.75372,3.24656 z"
           inkscape:transform-center-x="-0.81893854"
           inkscape:transform-center-y="-4.0498046"
           transform="scale(1,-1)" />
        <path
           style="opacity:1;fill:#999999;fill-opacity:1;stroke:none;stroke-width:1.15641212;stroke-linecap:round;stroke-miterlimit:4;stroke-dasharray:none;stroke-dashoffset:0;stroke-opacity:1;filter:url(#filter5424)"
           d="m 397.9668,457.79883 c -7.96116,0 -16.57751,6.40998 -19.31836,14.37109 l -2.08399,6.04883 h 54.6211 30.02929 64.06836 c 5.01004,0 7.65454,4.03488 5.92969,9.04492 l -17.64258,51.24414 c -1.72488,5.01004 -7.14625,9.04297 -12.15625,9.04297 h -64.06836 -30.02929 -6.82813 -6.82617 -6.82813 -6.82812 -6.82813 -6.82617 -6.82812 c -7.5402,-0.48292 -6.80659,-0.0594 -8.91016,6.05078 l -36.60156,106.3086 c 60.3541,-92.49978 64.18421,-91.93946 195.54687,-91.93946 7.96116,0 16.57552,-6.40798 19.31641,-14.36914 l 28.03516,-81.43164 c 2.74085,-7.96111 -1.46076,-14.37109 -9.42188,-14.37109 z m -83.08789,44.56836 c -2.17226,0 -4.85296,1.54665 -6.01172,3.46875 l -7.45899,12.37304 c -1.15876,1.9221 -0.34218,3.46875 1.83008,3.46875 h 158.90625 c 2.17226,0 4.85491,-1.54665 6.01367,-3.46875 l 7.45703,-12.37304 c 1.15877,-1.9221 0.34414,-3.46875 -1.82812,-3.46875 z"
           transform="scale(0.26458333)"
           id="rect5184-1"
           inkscape:connector-curvature="0" />
        <path
           style="opacity:1;fill:url(#linearGradient7236);fill-opacity:1;stroke:none;stroke-width:1.15641224;stroke-linecap:round;stroke-miterlimit:4;stroke-dasharray:none;stroke-dashoffset:0;stroke-opacity:1"
           d="m 396.07812,457.54492 c -7.96115,0 -16.57749,6.40997 -19.31835,14.3711 l -2.08399,6.04882 h 54.62305 30.02734 64.06836 c 5.01007,0 7.65455,4.03486 5.92969,9.04493 l -17.64258,51.24609 c -1.72486,5.01003 -7.14622,9.04102 -12.15625,9.04102 h -64.06836 -30.0293 -6.82617 -6.82812 -6.82813 -6.82812 -6.82813 -6.82617 -6.82812 c -7.5402,-0.48295 -6.8066,-0.0593 -8.91016,6.05078 l -36.60156,106.30859 c 60.3541,-92.49978 64.18421,-91.93945 195.54687,-91.93945 7.96116,0 16.57553,-6.40798 19.31641,-14.36914 l 28.03515,-81.43164 c 2.74084,-7.96113 -1.46075,-14.3711 -9.42187,-14.3711 z m -83.08789,44.56836 c -2.17225,0 -4.85295,1.54861 -6.01171,3.4707 l -7.45899,12.3711 c -1.15876,1.9221 -0.34218,3.46875 1.83008,3.46875 h 158.90625 c 2.17226,0 4.85491,-1.54665 6.01367,-3.46875 l 7.45703,-12.3711 c 1.15876,-1.92209 0.34414,-3.4707 -1.82812,-3.4707 z"
           id="rect5184"
           transform="scale(0.26458333)"
           inkscape:connector-curvature="0" />
        <path
           style="opacity:1;fill:url(#linearGradient7238);fill-opacity:1;stroke:none;stroke-width:0.30596739;stroke-linecap:round;stroke-miterlimit:4;stroke-dasharray:none;stroke-dashoffset:0;stroke-opacity:1"
           d="m 104.76083,120.85884 c -2.10639,0 -4.38614,1.69546 -5.111319,3.80184 l -0.551389,1.60093 h 14.451838 7.94525 16.95142 c 1.32557,0 2.02525,1.06705 1.56889,2.39262 l -4.66793,13.55886 c -0.45638,1.32557 -1.89078,2.39262 -3.21634,2.39262 h -16.95142 -7.94525 -1.80661 -1.80609 -1.80661 -1.80661 -1.806608 -1.80609 -1.80661 c -1.99501,-0.12777 -1.80091,-0.0162 -2.35748,1.60042 l -9.68416,28.128 c 15.96869,-24.47389 16.982079,-24.32565 51.738448,-24.32565 2.10639,0 4.3856,-1.69596 5.1108,-3.80235 l 7.41763,-21.54545 c 0.72518,-2.10638 -0.38649,-3.80184 -2.49287,-3.80184 z m -21.983678,11.79205 c -0.57474,0 -1.28401,0.40921 -1.5906,0.91777 l -1.97352,3.27318 c -0.30659,0.50856 -0.0905,0.9183 0.48421,0.9183 h 42.043948 c 0.57474,0 1.28452,-0.40974 1.59111,-0.9183 l 1.97301,-3.27318 c 0.30659,-0.50856 0.091,-0.91777 -0.48369,-0.91777 z"
           id="rect5184-0"
           inkscape:connector-curvature="0" />
      </g>
    </g>
  </g>
</svg>
